<svg xmlns="http://www.w3.org/2000/svg" viewBox="0 0 111 72">
	<path fill="#fff" d="M32.8 31.5c-1.62-.12-3.19.62-4.15 1.94V25H24v21.61h4.65v-7.9c0-1.89 1.07-2.79 2.36-2.79 1.41 0 2.3.96 2.3 2.7v7.99h4.65v-9.65c0-3.4-2.26-5.46-5.17-5.46ZM85.23 31.5c-1.61-.11-3.15.7-3.98 2.1v-1.69h-4.46v14.7h4.66v-7.95c-.09-.74.16-1.47.69-1.99.53-.52 1.26-.76 1.99-.65.79.01 1.58.14 2.33.39l.4-4.67c-.53-.15-1.07-.23-1.62-.23ZM51.28 33.49c-.99-1.31-2.55-2.05-4.18-1.99-3.91 0-6.79 3.39-6.79 7.73s2.88 7.76 6.77 7.76c1.63.07 3.2-.67 4.19-1.98v1.59h4.46V31.9h-4.46v1.58Zm-1.57 8.48c-.97.56-2.16.56-3.12 0-.97-.56-1.56-1.6-1.56-2.73 0-1.74 1.4-3.15 3.12-3.15s3.12 1.41 3.12 3.15c0 1.13-.6 2.17-1.56 2.73ZM67.6 31.51c-1.55-.07-3.04.6-4.02 1.8V25h-4.64v21.61h4.46v-1.58c.99 1.31 2.55 2.04 4.18 1.96 3.89 0 6.78-3.42 6.78-7.76s-2.89-7.73-6.75-7.72Zm-1.12 10.87c-1.72 0-3.12-1.41-3.12-3.15s1.4-3.15 3.12-3.15 3.12 1.41 3.12 3.15-1.4 3.15-3.12 3.15Z"/>
</svg>