<svg width="100" height="100" viewBox="0 0 100 100" fill="none" xmlns="http://www.w3.org/2000/svg">
<g clip-path="url(#clip0_132_6)">
<path d="M0 0V100H100V0H0ZM29.2656 16.6656H36.0687C41.1625 16.6656 42.9062 16.7781 43.0187 17.1375C43.1 17.4156 43.15 22.8344 43.15 29.2156L43.1188 40.8031L45.0875 39.0438C47.8375 36.6188 50.15 35.7719 54.5281 35.6094C57.4094 35.5281 58.5813 35.6406 60.6 36.3594C65.0281 37.8406 68.1531 40.8844 69.7812 45.375C70.4156 47.1344 70.4969 48.9719 70.6125 63.2312L70.7438 79.1656H56.8281V66.1625C56.8281 53.3531 56.7969 53.1906 55.9344 51.6281C54.7125 49.5625 53.3938 48.6156 51.3125 48.3906C47.7656 48 45.3063 49.2031 43.9063 52.1031C43.2375 53.4375 43.1563 54.8375 43.125 66.0844C43.075 72.9531 42.9938 78.7156 42.9938 78.8625C42.9625 79.0594 39.8688 79.1719 36.1094 79.1719H29.2906V47.9219L29.2656 16.6656Z" fill="#007EBB"/>
</g>
<defs>
<clipPath id="clip0_132_6">
<rect width="100" height="100" fill="white"/>
</clipPath>
</defs>
</svg>
